<svg width="171" height="44" viewBox="0 0 171 44" fill="none" xmlns="http://www.w3.org/2000/svg">
<g filter="url(#filter0_d_119_4)">
<circle cx="22" cy="18" r="18" fill="white"/>
<circle cx="22" cy="18" r="14" stroke="#0B7D16" stroke-width="8"/>
</g>
<path d="M57.796 1.85C59.028 1.85 59.952 1.99467 60.568 2.284C61.184 2.564 61.492 3.01667 61.492 3.642C61.492 4.258 61.3007 4.72933 60.918 5.056C60.5447 5.37333 60.1153 5.532 59.63 5.532C59.1447 5.532 58.706 5.41067 58.314 5.168C57.9313 4.916 57.6653 4.58467 57.516 4.174C57.1707 4.174 56.8393 4.29067 56.522 4.524C56.214 4.748 56.018 5.042 55.934 5.406C57.782 5.854 59.1073 6.37667 59.91 6.974C60.7127 7.57133 61.114 8.33667 61.114 9.27C61.114 10.2033 60.6893 10.95 59.84 11.51C59 12.07 57.8613 12.35 56.424 12.35C54.996 12.35 53.9833 12.154 53.386 11.762C52.7887 11.37 52.49 10.852 52.49 10.208C52.49 9.564 52.6907 8.97133 53.092 8.43C53.288 8.85 53.6613 9.228 54.212 9.564C54.772 9.9 55.3227 10.068 55.864 10.068C56.8627 10.068 57.4973 9.75067 57.768 9.116C56.2187 8.91067 55.038 8.48133 54.226 7.828C53.414 7.16533 53.008 6.36733 53.008 5.434C53.008 4.80867 53.176 4.25333 53.512 3.768C53.848 3.27333 54.2773 2.89533 54.8 2.634C55.8267 2.11133 56.8253 1.85 57.796 1.85ZM66.9307 1.388C66.9307 1.74267 66.744 2.05067 66.3707 2.312C65.9973 2.564 65.5727 2.69 65.0967 2.69C64.6207 2.69 64.2427 2.59667 63.9627 2.41C63.692 2.22333 63.5567 1.97133 63.5567 1.654C63.5567 1.22467 63.7573 0.888666 64.1587 0.645999C64.56 0.403333 64.9847 0.282 65.4327 0.282C65.8807 0.282 66.24 0.375333 66.5107 0.562C66.7907 0.748666 66.9307 1.024 66.9307 1.388ZM64.2007 12.35C63.622 12.35 63.202 12.2053 62.9407 11.916C62.6793 11.6267 62.5487 11.188 62.5487 10.6C62.5487 10.0027 62.8473 8.41133 63.4447 5.826L62.6607 4.65C63.8273 3.95 64.7467 3.6 65.4187 3.6C65.8013 3.6 66.072 3.684 66.2307 3.852C66.3893 4.01067 66.4687 4.272 66.4687 4.636C66.4687 4.776 66.296 5.59733 65.9507 7.1C65.6053 8.60267 65.4327 9.676 65.4327 10.32C65.4327 10.964 65.5773 11.412 65.8667 11.664C65.344 12.1213 64.7887 12.35 64.2007 12.35ZM69.1524 3.292L68.3684 2.172C69.5351 1.49067 70.4544 1.15 71.1264 1.15C71.5091 1.15 71.7797 1.22933 71.9384 1.388C72.0971 1.53733 72.1764 1.82667 72.1764 2.256C72.1764 2.676 71.9664 3.87067 71.5464 5.84C71.1357 7.80933 70.9304 9.19067 70.9304 9.984C70.9304 10.7773 71.0751 11.3373 71.3644 11.664C70.7111 12.1213 70.1184 12.35 69.5864 12.35C69.0544 12.35 68.6624 12.1773 68.4104 11.832C68.1677 11.4773 68.0464 10.992 68.0464 10.376C68.0464 9.76 68.2191 8.5 68.5644 6.596C68.9097 4.692 69.1057 3.59067 69.1524 3.292ZM73.7831 10.46C73.7831 10.46 73.8018 9.17667 73.8391 6.61C73.8391 5.52733 73.5871 4.72467 73.0831 4.202C73.5685 3.80067 74.1005 3.6 74.6791 3.6C75.4351 3.6 75.9485 3.936 76.2191 4.608C76.4525 5.18667 76.5691 6.064 76.5691 7.24C76.5691 8.40667 76.5458 9.54067 76.4991 10.642H76.9751C78.3938 7.66467 79.1031 5.728 79.1031 4.832C79.1031 4.61733 79.0611 4.40733 78.9771 4.202C79.6678 3.80067 80.2931 3.6 80.8531 3.6C81.5811 3.6 81.9451 4.03867 81.9451 4.916C81.9451 5.31733 81.8425 5.82133 81.6371 6.428C81.4318 7.02533 81.1145 7.8 80.6851 8.752C80.2651 9.69467 80.0458 10.1847 80.0271 10.222L80.2091 11.034C79.8171 11.3887 79.2571 11.6967 78.5291 11.958C77.8011 12.2193 77.0311 12.35 76.2191 12.35C75.4071 12.35 74.7958 12.2053 74.3851 11.916C73.9838 11.6173 73.7831 11.132 73.7831 10.46ZM86.9309 12.35C85.6522 12.35 84.6629 12.0187 83.9629 11.356C83.2722 10.6933 82.9269 9.79733 82.9269 8.668C82.9269 7.16533 83.4402 5.94733 84.4669 5.014C85.5029 4.07133 86.8002 3.6 88.3589 3.6C89.2269 3.6 89.8849 3.796 90.3329 4.188C90.7809 4.57067 91.0049 5.07933 91.0049 5.714C91.0049 6.582 90.5802 7.30533 89.7309 7.884C88.8909 8.45333 87.5889 8.74267 85.8249 8.752C85.8529 9.34933 85.9882 9.82067 86.2309 10.166C86.4735 10.502 86.7769 10.67 87.1409 10.67C87.5049 10.67 87.8175 10.5487 88.0789 10.306C88.3495 10.0633 88.4849 9.66667 88.4849 9.116C89.8475 9.116 90.5289 9.438 90.5289 10.082C90.5289 10.6327 90.1929 11.1507 89.5209 11.636C88.8489 12.112 87.9855 12.35 86.9309 12.35ZM88.1209 5.238C87.6449 5.238 87.2062 5.476 86.8049 5.952C86.4129 6.428 86.1282 6.988 85.9509 7.632C86.8842 7.55733 87.5842 7.34733 88.0509 7.002C88.5269 6.64733 88.7649 6.274 88.7649 5.882C88.7649 5.69533 88.7042 5.54133 88.5829 5.42C88.4709 5.29867 88.3169 5.238 88.1209 5.238ZM92.268 10.614C92.268 10.2407 92.3614 9.51733 92.548 8.444C92.744 7.37067 92.9447 6.39067 93.15 5.504L92.422 4.384C93.5887 3.86133 94.4054 3.6 94.872 3.6C95.348 3.6 95.586 3.89867 95.586 4.496C95.586 4.82267 95.432 5.504 95.124 6.54L95.264 6.61C95.936 4.60333 96.7714 3.6 97.77 3.6C98.2274 3.6 98.5774 3.74 98.82 4.02C99.0627 4.3 99.184 4.61267 99.184 4.958C99.184 5.47133 98.9927 5.91 98.61 6.274C98.2274 6.638 97.6534 6.82 96.888 6.82C95.7307 6.82 95.152 8.01 95.152 10.39C95.152 10.9687 95.25 11.3933 95.446 11.664C94.8674 12.1213 94.3354 12.35 93.85 12.35C92.7954 12.35 92.268 11.7713 92.268 10.614ZM104.144 5.462C103.799 5.56467 103.524 5.714 103.318 5.91C103.113 6.09667 102.931 6.36733 102.772 6.722C104.35 6.95533 105.46 7.29133 106.104 7.73C106.748 8.16867 107.07 8.794 107.07 9.606C107.07 10.1193 106.926 10.5673 106.636 10.95C106.347 11.3233 105.983 11.608 105.544 11.804C104.686 12.168 103.841 12.35 103.01 12.35C100.649 12.35 99.4682 11.8413 99.4682 10.824C99.4682 10.3107 99.6969 9.79733 100.154 9.284C100.388 9.61067 100.738 9.89067 101.204 10.124C101.68 10.3573 102.142 10.474 102.59 10.474C103.365 10.474 103.832 10.1333 103.99 9.452C102.572 9.284 101.545 8.96667 100.91 8.5C100.276 8.03333 99.9582 7.37533 99.9582 6.526C99.9582 5.854 100.178 5.28933 100.616 4.832C101.064 4.37467 101.615 4.05733 102.268 3.88C102.931 3.69333 103.673 3.6 104.494 3.6C105.325 3.6 106.006 3.75867 106.538 4.076C107.08 4.384 107.35 4.762 107.35 5.21C107.35 5.658 107.192 6.00333 106.874 6.246C106.566 6.48867 106.226 6.61 105.852 6.61C105.488 6.61 105.152 6.512 104.844 6.316C104.546 6.12 104.312 5.83533 104.144 5.462ZM110.228 14.786C109.65 14.786 109.244 14.6413 109.01 14.352C108.786 14.072 108.674 13.6613 108.674 13.12C108.674 12.588 108.786 11.51 109.01 9.886C109.244 8.262 109.468 6.876 109.682 5.728L108.898 4.608C109.477 4.272 109.976 4.02 110.396 3.852C110.816 3.67467 111.232 3.586 111.642 3.586C112.314 3.586 112.65 4.02933 112.65 4.916C112.65 5.03733 112.632 5.28467 112.594 5.658L112.734 5.728C113.005 5.056 113.397 4.53333 113.91 4.16C114.424 3.77733 115.026 3.586 115.716 3.586C116.416 3.586 116.972 3.90333 117.382 4.538C117.793 5.16333 117.998 5.94267 117.998 6.876C117.998 8.12667 117.56 9.26533 116.682 10.292C116.253 10.796 115.679 11.2067 114.96 11.524C114.242 11.832 113.439 11.986 112.552 11.986C112.282 11.986 111.927 11.9627 111.488 11.916C111.46 12.2427 111.446 12.546 111.446 12.826C111.446 13.4233 111.591 13.848 111.88 14.1C111.358 14.5573 110.807 14.786 110.228 14.786ZM112.062 8.99L111.74 10.614C112.87 10.586 113.77 10.2173 114.442 9.508C115.124 8.78933 115.464 8.00533 115.464 7.156C115.464 6.71733 115.376 6.36733 115.198 6.106C115.03 5.83533 114.783 5.7 114.456 5.7C113.299 5.7 112.501 6.79667 112.062 8.99ZM124.601 10.278L124.461 10.208C124.209 10.88 123.845 11.4073 123.369 11.79C122.902 12.1633 122.38 12.35 121.801 12.35C121.008 12.35 120.373 12.0513 119.897 11.454C119.421 10.8567 119.183 10.0587 119.183 9.06C119.183 7.51067 119.701 6.21333 120.737 5.168C121.782 4.12267 123.08 3.6 124.629 3.6C125.03 3.6 125.399 3.63733 125.735 3.712C125.791 3.97333 125.824 4.202 125.833 4.398C126.3 4.09933 126.78 3.95 127.275 3.95C127.956 3.95 128.297 4.31867 128.297 5.056C128.297 5.31733 128.148 6.106 127.849 7.422C127.56 8.738 127.415 9.71333 127.415 10.348C127.415 10.9827 127.56 11.4213 127.849 11.664C127.326 12.1213 126.78 12.35 126.211 12.35C125.651 12.35 125.24 12.182 124.979 11.846C124.727 11.51 124.601 10.9873 124.601 10.278ZM121.815 8.374C121.815 8.83133 121.908 9.186 122.095 9.438C122.291 9.68067 122.566 9.802 122.921 9.802C123.276 9.802 123.626 9.67133 123.971 9.41C124.316 9.14867 124.606 8.78933 124.839 8.332C124.923 7.38933 125.105 6.274 125.385 4.986C124.442 4.986 123.612 5.32667 122.893 6.008C122.174 6.68933 121.815 7.478 121.815 8.374ZM129.702 10.614C129.702 10.2407 129.795 9.51733 129.982 8.444C130.178 7.37067 130.378 6.39067 130.584 5.504L129.856 4.384C131.022 3.86133 131.839 3.6 132.306 3.6C132.782 3.6 133.02 3.89867 133.02 4.496C133.02 4.82267 132.866 5.504 132.558 6.54L132.698 6.61C133.37 4.60333 134.205 3.6 135.204 3.6C135.661 3.6 136.011 3.74 136.254 4.02C136.496 4.3 136.618 4.61267 136.618 4.958C136.618 5.47133 136.426 5.91 136.044 6.274C135.661 6.638 135.087 6.82 134.322 6.82C133.164 6.82 132.586 8.01 132.586 10.39C132.586 10.9687 132.684 11.3933 132.88 11.664C132.301 12.1213 131.769 12.35 131.284 12.35C130.229 12.35 129.702 11.7713 129.702 10.614ZM138.358 3.292L137.574 2.172C138.74 1.49067 139.66 1.15 140.332 1.15C140.714 1.15 140.985 1.22933 141.144 1.388C141.302 1.53733 141.382 1.794 141.382 2.158C141.382 2.51267 141.321 3.012 141.2 3.656C141.088 4.3 140.934 5.06067 140.738 5.938C140.551 6.81533 140.416 7.52 140.332 8.052L141.214 7.268C141.298 7.19333 141.433 7.07667 141.62 6.918C141.816 6.75 141.951 6.62867 142.026 6.554C142.11 6.47933 142.222 6.37667 142.362 6.246C142.502 6.106 142.604 5.98933 142.67 5.896C142.735 5.80267 142.81 5.69533 142.894 5.574C143.024 5.36867 143.09 5.14 143.09 4.888C143.09 4.62667 143.052 4.398 142.978 4.202C143.64 3.80067 144.266 3.6 144.854 3.6C145.246 3.6 145.558 3.726 145.792 3.978C146.025 4.22067 146.142 4.57533 146.142 5.042C146.142 5.50867 145.927 5.98 145.498 6.456C145.078 6.92267 144.555 7.33333 143.93 7.688C144.219 8.64933 144.592 9.53133 145.05 10.334C145.507 11.1367 145.89 11.6173 146.198 11.776C145.824 12.1587 145.246 12.35 144.462 12.35C143.883 12.35 143.393 12.154 142.992 11.762C142.6 11.37 142.25 10.726 141.942 9.83L141.592 8.836L140.15 9.55C140.14 9.65267 140.136 9.80667 140.136 10.012C140.136 10.7867 140.28 11.3373 140.57 11.664C139.916 12.1213 139.324 12.35 138.792 12.35C138.26 12.35 137.868 12.1773 137.616 11.832C137.373 11.4773 137.252 10.992 137.252 10.376C137.252 9.76 137.424 8.5 137.77 6.596C138.115 4.692 138.311 3.59067 138.358 3.292ZM148.559 3.292L147.775 2.172C148.941 1.49067 149.861 1.15 150.533 1.15C150.915 1.15 151.186 1.22933 151.345 1.388C151.503 1.53733 151.583 1.82667 151.583 2.256C151.583 2.676 151.373 3.87067 150.953 5.84C150.542 7.80933 150.337 9.19067 150.337 9.984C150.337 10.7773 150.481 11.3373 150.771 11.664C150.117 12.1213 149.525 12.35 148.993 12.35C148.461 12.35 148.069 12.1773 147.817 11.832C147.574 11.4773 147.453 10.992 147.453 10.376C147.453 9.76 147.625 8.5 147.971 6.596C148.316 4.692 148.512 3.59067 148.559 3.292ZM156.493 12.35C155.215 12.35 154.225 12.0187 153.525 11.356C152.835 10.6933 152.489 9.79733 152.489 8.668C152.489 7.16533 153.003 5.94733 154.029 5.014C155.065 4.07133 156.363 3.6 157.921 3.6C158.789 3.6 159.447 3.796 159.895 4.188C160.343 4.57067 160.567 5.07933 160.567 5.714C160.567 6.582 160.143 7.30533 159.293 7.884C158.453 8.45333 157.151 8.74267 155.387 8.752C155.415 9.34933 155.551 9.82067 155.793 10.166C156.036 10.502 156.339 10.67 156.703 10.67C157.067 10.67 157.38 10.5487 157.641 10.306C157.912 10.0633 158.047 9.66667 158.047 9.116C159.41 9.116 160.091 9.438 160.091 10.082C160.091 10.6327 159.755 11.1507 159.083 11.636C158.411 12.112 157.548 12.35 156.493 12.35ZM157.683 5.238C157.207 5.238 156.769 5.476 156.367 5.952C155.975 6.428 155.691 6.988 155.513 7.632C156.447 7.55733 157.147 7.34733 157.613 7.002C158.089 6.64733 158.327 6.274 158.327 5.882C158.327 5.69533 158.267 5.54133 158.145 5.42C158.033 5.29867 157.879 5.238 157.683 5.238ZM166.297 5.462C165.951 5.56467 165.676 5.714 165.471 5.91C165.265 6.09667 165.083 6.36733 164.925 6.722C166.502 6.95533 167.613 7.29133 168.257 7.73C168.901 8.16867 169.223 8.794 169.223 9.606C169.223 10.1193 169.078 10.5673 168.789 10.95C168.499 11.3233 168.135 11.608 167.697 11.804C166.838 12.168 165.993 12.35 165.163 12.35C162.801 12.35 161.621 11.8413 161.621 10.824C161.621 10.3107 161.849 9.79733 162.307 9.284C162.54 9.61067 162.89 9.89067 163.357 10.124C163.833 10.3573 164.295 10.474 164.743 10.474C165.517 10.474 165.984 10.1333 166.143 9.452C164.724 9.284 163.697 8.96667 163.063 8.5C162.428 8.03333 162.111 7.37533 162.111 6.526C162.111 5.854 162.33 5.28933 162.769 4.832C163.217 4.37467 163.767 4.05733 164.421 3.88C165.083 3.69333 165.825 3.6 166.647 3.6C167.477 3.6 168.159 3.75867 168.691 4.076C169.232 4.384 169.503 4.762 169.503 5.21C169.503 5.658 169.344 6.00333 169.027 6.246C168.719 6.48867 168.378 6.61 168.005 6.61C167.641 6.61 167.305 6.512 166.997 6.316C166.698 6.12 166.465 5.83533 166.297 5.462Z" fill="#3C3939"/>
<defs>
<filter id="filter0_d_119_4" x="0" y="0" width="44" height="44" filterUnits="userSpaceOnUse" color-interpolation-filters="sRGB">
<feFlood flood-opacity="0" result="BackgroundImageFix"/>
<feColorMatrix in="SourceAlpha" type="matrix" values="0 0 0 0 0 0 0 0 0 0 0 0 0 0 0 0 0 0 127 0" result="hardAlpha"/>
<feOffset dy="4"/>
<feGaussianBlur stdDeviation="2"/>
<feComposite in2="hardAlpha" operator="out"/>
<feColorMatrix type="matrix" values="0 0 0 0 0 0 0 0 0 0 0 0 0 0 0 0 0 0 0.25 0"/>
<feBlend mode="normal" in2="BackgroundImageFix" result="effect1_dropShadow_119_4"/>
<feBlend mode="normal" in="SourceGraphic" in2="effect1_dropShadow_119_4" result="shape"/>
</filter>
</defs>
</svg>
